<svg preserveAspectRatio="none" overflow="visible" style="display: block;" width="512" height="512" viewBox="0 0 512 512" fill="none" xmlns="http://www.w3.org/2000/svg">
<g id="favicon / mark">
<rect width="512" height="512" fill="#17181A"/>
<path id="contour 1" d="M413.831 135.282L419.411 144.572L423.691 154.672L426.661 165.482L428.281 176.942L428.541 188.962L427.441 201.442L425.001 214.292L421.221 227.412L416.141 240.712L409.791 254.072L402.231 267.412L393.511 280.612L383.701 293.582L372.871 306.212L361.101 318.422L348.491 330.112L335.131 341.192L321.121 351.572L306.571 361.192L291.591 369.952L276.301 377.802L260.801 384.682L245.221 390.542L229.681 395.322L214.291 399.002L199.181 401.552L184.451 402.942L170.221 403.172L156.591 402.232L143.681 400.132L131.581 396.892L120.381 392.542L110.161 387.102L101.011 380.612L92.9911 373.132L86.1711 364.722L80.5911 355.432L76.3111 345.332L73.3411 334.522L71.7211 323.062L71.4611 311.042L72.5611 298.562L75.0011 285.712L78.7811 272.592L83.8611 259.292L90.2111 245.932L97.7711 232.592L106.491 219.392L116.301 206.422L127.131 193.792L138.901 181.582L151.511 169.892L164.871 158.812L178.881 148.432L193.431 138.812L208.411 130.052L223.701 122.202L239.201 115.322L254.781 109.462L270.321 104.682L285.711 101.002L300.821 98.4519L315.551 97.0619L329.781 96.8319L343.411 97.7719L356.321 99.8719L368.421 103.112L379.621 107.462L389.841 112.902L398.991 119.392L407.011 126.872L413.831 135.282Z" stroke="#F7F4EF" stroke-width="11"/>
<path id="contour 2" d="M388.602 172.484L393.012 179.824L396.392 187.794L398.742 196.344L400.022 205.394L400.222 214.884L399.362 224.744L397.422 234.904L394.442 245.264L390.432 255.774L385.412 266.324L379.442 276.864L372.552 287.294L364.802 297.534L356.242 307.524L346.952 317.164L336.992 326.394L326.432 335.154L315.362 343.354L303.872 350.944L292.042 357.874L279.952 364.074L267.712 369.514L255.402 374.134L243.122 377.914L230.972 380.824L219.032 382.834L207.392 383.934L196.152 384.114L185.392 383.374L175.182 381.714L165.622 379.154L156.772 375.714L148.702 371.414L141.472 366.294L135.142 360.384L129.752 353.734L125.352 346.394L121.962 338.424L119.622 329.874L118.342 320.824L118.132 311.334L119.002 301.474L120.932 291.324L123.912 280.954L127.932 270.454L132.942 259.894L138.922 249.354L145.802 238.934L153.562 228.684L162.112 218.704L171.412 209.054L181.372 199.824L191.922 191.074L202.992 182.864L214.482 175.274L226.322 168.344L238.402 162.144L250.642 156.714L262.952 152.084L275.232 148.304L287.392 145.394L299.332 143.384L310.962 142.284L322.212 142.104L332.972 142.844L343.172 144.504L352.732 147.064L361.582 150.504L369.652 154.804L376.882 159.924L383.212 165.834L388.602 172.484Z" stroke="#F7F4EF" stroke-width="11"/>
</g>
</svg>
